<svg xmlns="http://www.w3.org/2000/svg" width="222.783" height="323.556" viewBox="0 0 167.087 242.667" xmlns:v="https://vecta.io/nano"><path d="M166.837 235.548a6.89 6.89 0 0 1-6.871 6.869H7.111c-3.775 0-6.861-3.092-6.861-6.869V7.12A6.89 6.89 0 0 1 7.111.25h152.855a6.89 6.89 0 0 1 6.871 6.87v228.428z" fill="#fff" stroke-width=".5" stroke="#000"/><text xml:space="preserve" x="8.311" y="27.548" font-size="32" letter-spacing="0" word-spacing="0" fill="#000" font-family="Bitstream Vera Sans"><tspan x="8.311" y="27.548" font-weight="normal" font-family="Arial">2</tspan></text><path d="M20.691 43.74s3.528-2.823 3.528-6.736c0-2.291-2.034-6.094-6.736-6.094s-6.736 3.805-6.736 6.094c0 3.913 3.528 6.736 3.528 6.736-3.919-3.053-10.906-.969-10.906 5.133 0 3.054 2.496 6.415 6.415 6.415 4.702 0 6.736-5.133 6.736-5.133s.597 5.85-2.887 8.982h7.699c-3.484-3.13-2.887-8.982-2.887-8.982s2.034 5.133 6.736 5.133c3.921 0 6.415-3.362 6.415-6.415 0-6.102-6.987-8.186-10.906-5.133z"/><text xml:space="preserve" x="-158.864" y="-214.467" transform="scale(-1)" font-size="32" letter-spacing="0" word-spacing="0" fill="#000" font-family="Bitstream Vera Sans"><tspan x="-158.864" y="-214.467" font-weight="normal" font-family="Arial">2</tspan></text><path d="M146.484 198.74s-3.528 2.823-3.528 6.736c0 2.291 2.034 6.094 6.736 6.094s6.736-3.805 6.736-6.094c0-3.913-3.528-6.736-3.528-6.736 3.919 3.053 10.906.969 10.906-5.133 0-3.054-2.496-6.415-6.415-6.415-4.702 0-6.736 5.133-6.736 5.133s-.597-5.85 2.887-8.982h-7.699c3.484 3.13 2.887 8.982 2.887 8.982s-2.034-5.133-6.736-5.133c-3.921 0-6.415 3.362-6.415 6.415 0 6.102 6.987 8.186 10.906 5.133zM89.573 55.5s5.967-4.774 5.967-11.392c0-3.874-3.44-10.307-11.392-10.307s-11.392 6.435-11.392 10.307c0 6.618 5.967 11.392 5.967 11.392-6.628-5.163-18.445-1.638-18.445 8.681 0 5.166 4.221 10.849 10.849 10.849 7.952 0 11.392-8.681 11.392-8.681s1.01 9.895-4.882 15.191h13.02c-5.892-5.294-4.882-15.191-4.882-15.191s3.44 8.681 11.392 8.681c6.631 0 10.849-5.686 10.849-10.849 0-10.319-11.817-13.844-18.445-8.681zM78.768 188.244s-5.967 4.774-5.967 11.392c0 3.874 3.44 10.307 11.392 10.307s11.392-6.435 11.392-10.307c0-6.618-5.967-11.392-5.967-11.392 6.628 5.163 18.445 1.638 18.445-8.681 0-5.166-4.221-10.849-10.849-10.849-7.952 0-11.392 8.681-11.392 8.681s-1.01-9.895 4.882-15.191h-13.02c5.892 5.294 4.882 15.191 4.882 15.191s-3.44-8.681-11.392-8.681c-6.631 0-10.849 5.686-10.849 10.849 0 10.319 11.817 13.844 18.445 8.681z"/></svg>