<svg xmlns="http://www.w3.org/2000/svg" width="222.783" height="323.556" viewBox="0 0 167.087 242.667" xmlns:v="https://vecta.io/nano"><defs><radialGradient id="A" cx="48.231" cy="18.138" fx="48.231" fy="18.138" r="9.5" gradientTransform="matrix(-1.5605256,0.01828294,-0.02684055,-2.2909528,123.98377,58.809108)" href="#G"><stop offset="0"/><stop offset="1" stop-opacity=".656"/></radialGradient><radialGradient id="B" cx="171.487" cy="511.223" fx="171.487" fy="511.223" r="81.903" gradientTransform="matrix(1.1529891,-0.67391547,0.39482025,0.67549043,-233.63262,270.40076)" href="#G"><stop offset="0" stop-color="#fff" stop-opacity=".534"/><stop offset="1" stop-opacity="0"/></radialGradient><filter color-interpolation-filters="sRGB" id="C" x="-.139" width="1.279" y="-.162" height="1.325"><feGaussianBlur stdDeviation="9.511"/></filter><radialGradient r="81.903" fy="511.223" fx="171.487" cy="511.223" cx="171.487" gradientTransform="matrix(1.152989,-0.67391547,0.39482025,0.67549,-233.63262,270.40076)" id="D" href="#G"><stop offset="0" stop-color="#fff" stop-opacity=".519"/><stop offset="1" stop-opacity="0"/></radialGradient><radialGradient r="81.903" fy="461.841" fx="181.694" cy="461.841" cx="181.694" gradientTransform="matrix(1.152989,-0.67391547,0.39482025,0.67549,-233.63262,270.40076)" id="E" href="#G"><stop offset="0" stop-color="#fff" stop-opacity=".702"/><stop offset="1" stop-opacity="0"/></radialGradient><path id="F" d="M117.301 604.266s-8.068-94.95 22.857-122.857c34.761-31.369 140-11.429 140-11.429s-71.54 24.838-100 48.571c-27.21 22.692-62.857 85.714-62.857 85.714z"/><linearGradient id="G" gradientUnits="userSpaceOnUse"/></defs><path d="M166.837 235.548a6.89 6.89 0 0 1-6.871 6.869H7.111c-3.775 0-6.861-3.092-6.861-6.869V7.12A6.89 6.89 0 0 1 7.111.25h152.855a6.89 6.89 0 0 1 6.871 6.87v228.428z" fill="#fff" stroke-width=".5" stroke="#000"/><text xml:space="preserve" x="6.711" y="27.548" font-size="32" letter-spacing="0" word-spacing="0" fill="#000" font-family="Bitstream Vera Sans"><tspan x="6.711" y="27.548" font-weight="normal" font-family="Arial">A</tspan></text><g transform="matrix(.206146 0 0 .206146 8.870546 16.512759)"><path d="M50.291 22.698s2.375-1.9 2.375-4.534c0-1.542-1.369-4.102-4.534-4.102s-4.534 2.561-4.534 4.102c0 2.634 2.375 4.534 2.375 4.534-2.638-2.055-7.341-.652-7.341 3.455 0 2.056 1.68 4.318 4.318 4.318 3.165 0 4.534-3.455 4.534-3.455s.402 3.938-1.943 6.046h5.182c-2.345-2.107-1.943-6.046-1.943-6.046s1.369 3.455 4.534 3.455c2.639 0 4.318-2.263 4.318-4.318 0-4.107-4.703-5.51-7.341-3.455z" fill="url(#A)" transform="matrix(28.969925 0 0 28.969925 -1031.5368 -187.37665)"/><use href="#F" transform="matrix(1.109126 0 0 1.207169 -37.349149 -111.34227)" fill="url(#B)" filter="url(#C)"/><use href="#F" transform="matrix(1.109126 0 0 1.207169 117.2523 -332.26545)" fill="url(#D)" filter="url(#C)"/><use href="#F" transform="matrix(1.142038 .702908 -.841885 1.367838 729.37187 -305.07466)" fill="url(#E)" filter="url(#C)"/><path d="M28.356 122.025v734.281h667.156V122.025H28.356zm334.281 97.625c91.69 0 131.375 74.172 131.375 118.844 0 76.307-68.812 131.344-68.812 131.344 76.423-59.533 212.656-18.886 212.656 100.094 0 59.533-48.642 125.094-125.094 125.094-91.69 0-131.344-100.094-131.344-100.094s-11.653 114.117 56.281 175.156H287.574c67.934-61.069 56.313-175.156 56.313-175.156s-39.654 100.094-131.344 100.094c-76.423 0-125.094-65.532-125.094-125.094 0-118.979 136.234-159.627 212.656-100.094 0 0-68.812-55.037-68.812-131.344 0-44.643 39.654-118.844 131.344-118.844z" fill="#fffeff"/></g><path d="M20.691 43.74s3.528-2.823 3.528-6.736c0-2.291-2.034-6.094-6.736-6.094s-6.736 3.805-6.736 6.094c0 3.913 3.528 6.736 3.528 6.736-3.919-3.053-10.906-.969-10.906 5.133 0 3.054 2.496 6.415 6.415 6.415 4.702 0 6.736-5.133 6.736-5.133s.597 5.85-2.887 8.982h7.699c-3.484-3.13-2.887-8.982-2.887-8.982s2.034 5.133 6.736 5.133c3.921 0 6.415-3.362 6.415-6.415 0-6.102-6.987-8.186-10.906-5.133z"/><text xml:space="preserve" x="-160.464" y="-214.467" transform="scale(-1)" font-size="32" letter-spacing="0" word-spacing="0" fill="#000" font-family="Bitstream Vera Sans"><tspan x="-160.464" y="-214.467" font-weight="normal" font-family="Arial">A</tspan></text><path d="M146.484 198.74s-3.528 2.823-3.528 6.736c0 2.291 2.034 6.094 6.736 6.094s6.736-3.805 6.736-6.094c0-3.913-3.528-6.736-3.528-6.736 3.919 3.053 10.906.969 10.906-5.133 0-3.054-2.496-6.415-6.415-6.415-4.702 0-6.736 5.133-6.736 5.133s-.597-5.85 2.887-8.982h-7.699c3.484 3.13 2.887 8.982 2.887 8.982s-2.034-5.133-6.736-5.133c-3.921 0-6.415 3.362-6.415 6.415 0 6.102 6.987 8.186 10.906 5.133z"/></svg>